:FULLY-SPECIFIED
:FORCE-ALL-JOINTS-BE-3DOF
:DEGREES
126
root 0.752504 17.3092 31.0361 0.635421 -6.64608 -3.42276
lfemur -5.76316 13.8395 -8.99223
ltibia 104.935 0 0
lfoot 24.2007 -4.9239 0
ltoes -6.09615 0 0
rfemur -17.8389 5.06747 30.9662
rtibia 40.1319 0 0
rfoot -13.654 -7.25885 0
rtoes 3.86068 0 0
lowerback 18.1776 -1.76583 4.85239
upperback 1.68336 -1.16231 2.21089
thorax -8.43123 -0.692127 -0.0731976
lowerneck -6.43022 3.10239 0.261395
upperneck -9.4299 3.83509 -4.6238
head -1.7714 1.96949 -1.48087
lclavicle 7.55382e-15 -1.94809e-14 0
lhumerus -48.6858 -16.8702 94.3534
lradius 105.114 0 0
lwrist 29.1508 0 0
lhand -38.1057 7.87437 0
lfingers 7.12502 0 0
lthumb -11.1412 37.5586 0
rclavicle 7.55382e-15 -1.94809e-14 0
rhumerus -33.1905 13.8248 -85.3459
rradius 93.4585 0 0
rwrist -3.11049 0 0
rhand -43.7393 38.4661 0
rfingers 7.12502 0 0
rthumb -16.5702 9.15359 0
127
root 0.75186 17.2442 31.4994 1.16887 -5.96348 -3.8083
lfemur -10.0167 13.6334 -8.64097
ltibia 108.301 0 0
lfoot 22.4595 -6.34868 0
ltoes -9.28816 0 0
rfemur -17.1064 4.21125 31.2265
rtibia 41.1492 0 0
rfoot -15.2679 -7.32251 0
rtoes 0.514304 0 0
lowerback 17.9689 -1.99653 5.36527
upperback 1.68308 -1.37433 2.24848
thorax -8.33651 -0.809333 -0.27405
lowerneck -5.94179 3.10218 0.681529
upperneck -10.4651 3.75496 -4.95964
head -2.18305 1.93937 -1.69472
lclavicle -6.4605e-15 4.77083e-15 0
lhumerus -49.9002 -15.5595 94.0621
lradius 104.998 0 0
lwrist 30.607 0 0
lhand -38.1052 8.5552 0
lfingers 7.12502 0 0
lthumb -11.1408 38.2395 0
rclavicle -6.4605e-15 4.77083e-15 0
rhumerus -30.5887 14.7155 -85.3507
rradius 94.3893 0 0
rwrist -2.89929 0 0
rhand -43.8452 38.6866 0
rfingers 7.12502 0 0
rthumb -16.6722 9.38262 0
128
root 0.739429 17.2017 31.9632 1.65118 -4.62332 -3.24898
lfemur -14.9191 12.5461 -9.84407
ltibia 110.958 0 0
lfoot 21.6259 -6.92433 0
ltoes -10.3916 0 0
rfemur -16.3644 3.03684 30.5169
rtibia 41.7465 0 0
rfoot -16.5946 -7.69637 0
rtoes -3.0728 0 0
lowerback 17.5727 -2.25587 4.92855
upperback 1.61439 -1.8397 2.08543
thorax -8.20569 -1.0189 -0.0988809
lowerneck -5.3754 3.03216 0.946434
upperneck -11.3153 3.60745 -5.13341
head -2.56319 1.87651 -1.83076
lclavicle -6.36111e-15 2.3059e-14 0
lhumerus -51.0349 -14.5883 93.9371
lradius 104.819 0 0
lwrist 32.0435 0 0
lhand -38.1987 10.8314 0
lfingers 7.12502 0 0
lthumb -11.2309 40.5108 0
rclavicle -6.36111e-15 2.3059e-14 0
rhumerus -28.0606 15.4446 -85.1995
rradius 95.0819 0 0
rwrist -2.54098 0 0
rhand -43.8568 38.7719 0
rfingers 7.12502 0 0
rthumb -16.6834 9.46885 0
129
root 0.723366 17.1646 32.4103 2.40397 -2.15433 -3.10382
lfemur -20.866 10.2248 -10.8126
ltibia 113.381 0 0
lfoot 21.4554 -7.27152 0
ltoes -10.5402 0 0
rfemur -15.9432 1.18564 30.3746
rtibia 42.1308 0 0
rfoot -17.7148 -8.27495 0
rtoes -6.29482 0 0
lowerback 17.1868 -2.81268 5.13313
upperback 1.32027 -2.53961 2.14985
thorax -8.3485 -1.36485 0.0229309
lowerneck -5.16696 2.77478 0.844607
upperneck -11.6382 3.25087 -5.15844
head -2.72252 1.71049 -1.83333
lclavicle 3.72721e-14 -3.65764e-14 0
lhumerus -52.096 -13.9316 94.1483
lradius 104.675 0 0
lwrist 33.6858 0 0
lhand -38.3452 12.2039 0
lfingers 7.12502 0 0
lthumb -11.3722 41.8755 0
rclavicle 3.72721e-14 -3.65764e-14 0
rhumerus -25.9763 15.7538 -84.7773
rradius 95.8975 0 0
rwrist -2.07642 0 0
rhand -43.9041 38.6405 0
rfingers 7.12502 0 0
rthumb -16.7289 9.34125 0
130
root 0.721235 17.1663 32.9674 1.69211 -5.222 -3.67514
lfemur -21.1112 13.3575 -9.68687
ltibia 113.835 0 0
lfoot 19.5234 -8.18804 0
ltoes -10.5292 0 0
rfemur -12.7204 3.13934 30.8355
rtibia 41.9764 0 0
rfoot -18.6251 -7.69601 0
rtoes -10.4581 0 0
lowerback 17.6697 -1.50752 5.00203
upperback 1.69569 -0.826899 2.21259
thorax -8.12656 -0.531254 -0.252415
lowerneck -4.88305 2.51182 0.888913
upperneck -11.8217 2.87869 -5.29043
head -2.84643 1.53322 -1.89373
lclavicle -6.95746e-16 2.74323e-14 0
lhumerus -53.2695 -13.3422 94.3897
lradius 104.714 0 0
lwrist 35.3096 0 0
lhand -38.1354 12.8785 0
lfingers 7.12502 0 0
lthumb -11.1699 42.5612 0
rclavicle -6.95746e-16 2.74323e-14 0
rhumerus -24.5982 15.7018 -84.4914
rradius 96.823 0 0
rwrist -1.42207 0 0
rhand -43.8125 38.3198 0
rfingers 7.12502 0 0
rthumb -16.6407 9.01314 0
131
root 0.702442 17.1669 33.4485 1.78057 -5.29347 -3.99965
lfemur -24.6394 13.5877 -9.54649
ltibia 114.622 0 0
lfoot 18.2727 -8.8045 0
ltoes -12.8727 0 0
rfemur -10.8136 3.31091 31.1969
rtibia 41.6173 0 0
rfoot -18.654 -7.53622 0
rtoes -11.921 0 0
lowerback 18.0877 -1.16935 4.90673
upperback 1.57726 -0.352183 2.35826
thorax -8.46498 -0.30416 -0.149004
lowerneck -5.15145 2.30116 1.06629
upperneck -11.48 2.59305 -5.46056
head -2.68932 1.38138 -1.96654
lclavicle -2.85256e-14 2.34566e-14 0
lhumerus -54.292 -12.7567 94.6028
lradius 104.808 0 0
lwrist 36.5292 0 0
lhand -37.996 12.7205 0
lfingers 7.12502 0 0
lthumb -11.0354 42.4104 0
rclavicle -2.85256e-14 2.34566e-14 0
rhumerus -23.4901 15.6012 -84.2902
rradius 97.8843 0 0
rwrist -0.943379 0 0
rhand -43.7962 38.7057 0
rfingers 7.12502 0 0
rthumb -16.625 9.39775 0
132
root 0.696905 17.1883 33.9543 1.86569 -5.15782 -4.2605
lfemur -27.8694 13.1311 -9.89644
ltibia 114.68 0 0
lfoot 17.2032 -9.20489 0
ltoes -15.552 0 0
rfemur -8.64651 2.97597 31.3619
rtibia 40.9581 0 0
rfoot -17.9769 -6.88895 0
rtoes -11.8048 0 0
lowerback 18.2134 -0.907355 5.09271
upperback 1.57092 0.0416503 2.37971
thorax -8.52576 -0.122969 -0.328494
lowerneck -6.18442 2.09418 1.2168
upperneck -10.6319 2.34591 -5.4815
head -2.23159 1.22945 -1.96271
lclavicle 2.5842e-15 9.93923e-15 0
lhumerus -55.0286 -12.4539 94.8688
lradius 105.126 0 0
lwrist 37.917 0 0
lhand -39.7517 16.794 0
lfingers 7.12502 0 0
lthumb -12.7285 46.386 0
rclavicle 2.5842e-15 9.93923e-15 0
rhumerus -22.3639 15.303 -84.0766
rradius 98.9212 0 0
rwrist -0.69251 0 0
rhand -43.8087 39.1125 0
rfingers 7.12502 0 0
rthumb -16.637 9.80558 0
